<?xml version="1.0" encoding="UTF-8"?>
<svg width="31px" height="31px" viewBox="0 0 31 31" version="1.1" xmlns="http://www.w3.org/2000/svg" xmlns:xlink="http://www.w3.org/1999/xlink">
    <!-- Generator: Sketch 53 (72520) - https://sketchapp.com -->
    <title>Shape</title>
    <desc>Created with Sketch.</desc>
    <g id="Page-1" stroke="none" stroke-width="1" fill="none" fill-rule="evenodd">
        <g id="realestate-landing-page-1" transform="translate(-244.000000, -2665.000000)" fill="#4A90E2" fill-rule="nonzero">
            <g id="Group" transform="translate(244.000000, 2665.000000)">
                <g id="facebook-logo-button-(1)">
                    <path d="M15.39212,0 C6.90494,0 0,6.90494 0,15.39212 C0,23.87868 6.90494,30.78424 15.39212,30.78424 C23.87868,30.78424 30.78424,23.87868 30.78424,15.39212 C30.78424,6.90494 23.87992,0 15.39212,0 Z M19.22,15.934 L16.71582,15.934 C16.71582,19.93486 16.71582,24.85952 16.71582,24.85952 L13.00512,24.85952 C13.00512,24.85952 13.00512,19.9826 13.00512,15.934 L11.24122,15.934 L11.24122,12.77944 L13.00512,12.77944 L13.00512,10.73902 C13.00512,9.27768 13.69952,6.99422 16.74992,6.99422 L19.49962,7.00476 L19.49962,10.06694 C19.49962,10.06694 17.82872,10.06694 17.50384,10.06694 C17.17896,10.06694 16.71706,10.22938 16.71706,10.92626 L16.71706,12.78006 L19.54426,12.78006 L19.22,15.934 Z" id="Shape"></path>
                </g>
            </g>
        </g>
    </g>
</svg>