<?xml version="1.0" encoding="UTF-8"?>
<svg width="31px" height="31px" viewBox="0 0 31 31" version="1.1" xmlns="http://www.w3.org/2000/svg" xmlns:xlink="http://www.w3.org/1999/xlink">
    <!-- Generator: Sketch 53 (72520) - https://sketchapp.com -->
    <title>instagram (7)</title>
    <desc>Created with Sketch.</desc>
    <g id="Page-1" stroke="none" stroke-width="1" fill="none" fill-rule="evenodd">
        <g id="realestate-landing-page-1" transform="translate(-330.000000, -2665.000000)" fill="#4A90E2" fill-rule="nonzero">
            <g id="Group" transform="translate(244.000000, 2665.000000)">
                <g id="instagram-(7)" transform="translate(86.000000, 0.000000)">
                    <path d="M18.4410256,15.5 C18.4410256,17.1243165 17.1243165,18.4410256 15.5,18.4410256 C13.8756835,18.4410256 12.5589744,17.1243165 12.5589744,15.5 C12.5589744,13.8756835 13.8756835,12.5589744 15.5,12.5589744 C17.1243165,12.5589744 18.4410256,13.8756835 18.4410256,15.5 Z" id="Path"></path>
                    <path d="M22.3742285,10.3186605 C22.2312976,9.93134874 22.003272,9.58077706 21.7069808,9.29301915 C21.4192229,8.996728 21.0688883,8.76870238 20.6813395,8.62577152 C20.3670339,8.50369957 19.8948643,8.35839841 19.0251907,8.3188139 C18.0844071,8.27591096 17.8023379,8.26666667 15.4206313,8.26666667 C13.0386877,8.26666667 12.7566186,8.27567395 11.816072,8.31857689 C10.9463983,8.35839841 10.4739918,8.50369957 10.1599232,8.62577152 C9.77237438,8.76870238 9.4218027,8.996728 9.13428181,9.29301915 C8.83799066,9.58077706 8.60996504,9.93111172 8.46679717,10.3186605 C8.34472521,10.6329661 8.19942406,11.1053727 8.15983955,11.9750464 C8.11693661,12.9155929 8.10769231,13.1976621 8.10769231,15.5796057 C8.10769231,17.9613123 8.11693661,18.2433814 8.15983955,19.184165 C8.19942406,20.0538387 8.34472521,20.5260082 8.46679717,20.8403139 C8.60996504,21.2278627 8.83775364,21.5781973 9.13404479,21.8659552 C9.4218027,22.1622464 9.7721373,22.390272 10.1596861,22.5332028 C10.4739918,22.6555118 10.9463983,22.800813 11.816072,22.8403975 C12.7566186,22.8833005 13.0384507,22.8923077 15.4203943,22.8923077 C17.8025749,22.8923077 18.0846441,22.8833005 19.0249536,22.8403975 C19.8946273,22.800813 20.3670339,22.6555118 20.6813395,22.5332028 C21.4592815,22.2331192 22.0741449,21.6182558 22.3742285,20.8403139 C22.4963004,20.5260082 22.6416016,20.0538387 22.6814231,19.184165 C22.7243261,18.2433814 22.7333333,17.9613123 22.7333333,15.5796057 C22.7333333,13.1976621 22.7243261,12.9155929 22.6814231,11.9750464 C22.6418386,11.1053727 22.4965375,10.6329661 22.3742285,10.3186605 L22.3742285,10.3186605 Z M15.4206313,20.1597924 C12.8907792,20.1597924 10.8399706,18.1092208 10.8399706,15.5793687 C10.8399706,13.0495165 12.8907792,10.9989449 15.4206313,10.9989449 C17.9502464,10.9989449 20.0010551,13.0495165 20.0010551,15.5793687 C20.0010551,18.1092208 17.9502464,20.1597924 15.4206313,20.1597924 Z M20.1821482,11.8882924 C19.5909881,11.8882924 19.1117076,11.4090119 19.1117076,10.8178518 C19.1117076,10.2266917 19.5909881,9.74741121 20.1821482,9.74741121 C20.7733083,9.74741121 21.2525888,10.2266917 21.2525888,10.8178518 C21.2523518,11.4090119 20.7733083,11.8882924 20.1821482,11.8882924 Z" id="Shape"></path>
                    <path d="M15.5,0 C6.9408951,0 0,6.9408951 0,15.5 C0,24.0591049 6.9408951,31 15.5,31 C24.0591049,31 31,24.0591049 31,15.5 C31,6.9408951 24.0591049,0 15.5,0 Z M24.3467026,19.1694718 C24.3036575,20.1169357 24.1529998,20.7637939 23.9330444,21.3300018 C23.470665,22.5255661 22.5255661,23.470665 21.3300018,23.9330444 C20.7640304,24.1529998 20.1169357,24.3034211 19.1697083,24.3467026 C18.2205887,24.3899841 17.9173813,24.4003906 15.5002365,24.4003906 C13.0828552,24.4003906 12.7798844,24.3899841 11.8305282,24.3467026 C10.8833008,24.3034211 10.2362061,24.1529998 9.6702347,23.9330444 C9.07611848,23.7095413 8.53829192,23.3592682 8.0936508,22.9063492 C7.64096834,22.4619446 7.29069516,21.9238815 7.06719206,21.3300018 C6.84723665,20.7640304 6.69657895,20.1169357 6.65353394,19.1697083 C6.60977937,18.2203522 6.59960938,17.9171448 6.59960938,15.5 C6.59960938,13.0828552 6.60977937,12.7796478 6.65329744,11.8305282 C6.69634245,10.8830643 6.8467636,10.2362061 7.06671907,9.6699982 C7.29022217,9.07611848 7.64073178,8.53805542 8.0936508,8.0936508 C8.53805542,7.64073178 9.07611848,7.29045866 9.6699982,7.06695557 C10.2362061,6.84700015 10.8830643,6.69657895 11.8305282,6.65329744 C12.7796478,6.61001587 13.0828552,6.59960938 15.5,6.59960938 C17.9171448,6.59960938 18.2203522,6.61001587 19.1694718,6.65353394 C20.1169357,6.69657895 20.7637939,6.84700015 21.3300018,7.06671907 C21.9238815,7.29022217 22.4619446,7.64073178 22.9065857,8.0936508 C23.3592682,8.53829192 23.7097778,9.07611848 23.9330444,9.6699982 C24.1532364,10.2362061 24.3036575,10.8830643 24.3469391,11.8305282 C24.3902206,12.7796478 24.4003906,13.0828552 24.4003906,15.5 C24.4003906,17.9171448 24.3902206,18.2203522 24.3467026,19.1694718 L24.3467026,19.1694718 Z" id="Shape"></path>
                </g>
            </g>
        </g>
    </g>
</svg>