<?xml version="1.0" encoding="UTF-8"?>
<svg width="31px" height="31px" viewBox="0 0 31 31" version="1.1" xmlns="http://www.w3.org/2000/svg" xmlns:xlink="http://www.w3.org/1999/xlink">
    <!-- Generator: Sketch 53 (72520) - https://sketchapp.com -->
    <title>Shape</title>
    <desc>Created with Sketch.</desc>
    <g id="Page-1" stroke="none" stroke-width="1" fill="none" fill-rule="evenodd">
        <g id="realestate-landing-page-1" transform="translate(-287.000000, -2665.000000)" fill="#4A90E2" fill-rule="nonzero">
            <g id="Group" transform="translate(244.000000, 2665.000000)">
                <g id="twitter-logo-button-(1)" transform="translate(43.000000, 0.000000)">
                    <path d="M15.39212,0 C6.90494,0 0,6.90494 0,15.39212 C0,23.87868 6.90494,30.78424 15.39212,30.78424 C23.87868,30.78424 30.78424,23.87868 30.78424,15.39212 C30.78424,6.90494 23.87992,0 15.39212,0 Z M22.25862,11.86928 C22.26544,12.0218 22.26916,12.17556 22.26916,12.32932 C22.26916,17.01094 18.70664,22.40742 12.18858,22.40742 C10.18784,22.40742 8.32536,21.82276 6.758,20.81712 C7.03514,20.84998 7.31724,20.86672 7.60306,20.86672 C9.26342,20.86672 10.79048,20.30004 12.0032,19.3502 C10.4532,19.32168 9.14438,18.29744 8.69364,16.88942 C8.9094,16.93034 9.13198,16.95328 9.35952,16.95328 C9.68254,16.95328 9.99626,16.91112 10.29324,16.8299 C8.67256,16.50502 7.45178,15.07344 7.45178,13.35604 C7.45178,13.34116 7.45178,13.32566 7.4524,13.3114 C7.9298,13.57614 8.47602,13.7361 9.05634,13.75408 C8.1065,13.11982 7.48092,12.03482 7.48092,10.80598 C7.48092,10.15622 7.65514,9.54738 7.96018,9.0241 C9.70672,11.16806 12.31816,12.57794 15.26192,12.72674 C15.20116,12.46696 15.17078,12.19726 15.17078,11.91888 C15.17078,9.96278 16.75674,8.3762 18.71284,8.3762 C19.73212,8.3762 20.65158,8.80648 21.29886,9.49468 C22.10672,9.33596 22.86312,9.04208 23.54946,8.63474 C23.28286,9.46244 22.723,10.15622 21.98954,10.59518 C22.70688,10.50962 23.39136,10.3199 24.02438,10.0378 C23.55194,10.74708 22.95116,11.37142 22.25862,11.86928 Z" id="Shape"></path>
                </g>
            </g>
        </g>
    </g>
</svg>