<?xml version="1.0" encoding="UTF-8"?>
<svg width="21px" height="33px" viewBox="0 0 21 33" version="1.1" xmlns="http://www.w3.org/2000/svg" xmlns:xlink="http://www.w3.org/1999/xlink">
    <!-- Generator: Sketch 53 (72520) - https://sketchapp.com -->
    <title></title>
    <desc>Created with Sketch.</desc>
    <g id="Page-1" stroke="none" stroke-width="1" fill="none" fill-rule="evenodd">
        <g id="realestate-landing-page-1" transform="translate(-915.000000, -31.000000)" fill="#4A90E2" fill-rule="nonzero">
            <path d="M933.165,56.5 L933.165,36.06 L917.835,36.06 L917.835,56.5 L933.165,56.5 Z M928.44,60.875 L928.44,59.44 L922.56,59.44 L922.56,60.875 L928.44,60.875 Z M931.31,31.685 C932.080004,31.685 932.80333,31.8833314 933.48,32.28 C934.15667,32.6766686 934.693331,33.21333 935.09,33.89 C935.486669,34.56667 935.685,35.2899962 935.685,36.06 L935.685,59.44 C935.685,60.2100038 935.486669,60.93333 935.09,61.61 C934.693331,62.28667 934.15667,62.8233314 933.48,63.22 C932.80333,63.6166687 932.080004,63.815 931.31,63.815 L919.69,63.815 C918.919996,63.815 918.19667,63.6166687 917.52,63.22 C916.84333,62.8233314 916.306669,62.28667 915.91,61.61 C915.513331,60.93333 915.315,60.2100038 915.315,59.44 L915.315,36.06 C915.315,35.2899962 915.513331,34.56667 915.91,33.89 C916.306669,33.21333 916.84333,32.6766686 917.52,32.28 C918.19667,31.8833314 918.919996,31.685 919.69,31.685 L931.31,31.685 Z" id=""></path>
        </g>
    </g>
</svg>